<svg enable-background="new -164 -203.5 616 641" height="641" viewBox="-164 -203.5 616 641" width="616" xmlns="http://www.w3.org/2000/svg"><g fill="#127cc1"><path d="m444.329-86.082c-28.613-139.479-298.504-148.313-472.478-42.048v11.736c173.745-89.683 420.28-89.11 442.716 39.371 7.558 42.564-16.252 86.831-58.943 112.303v33.332c51.391-18.854 103.924-79.883 88.705-154.694m-316.358 244.205c-120.064 11.114-245.164-6.377-262.678-100.566-8.698-46.378 12.475-95.604 40.405-126.146v-16.351c-50.361 44.328-77.717 100.398-61.922 166.598 20.144 84.958 127.503 133.047 291.406 117.034 64.897-6.266 149.825-27.233 208.765-59.763v-46.216c-53.563 32.079-142.154 58.581-215.976 65.41z"/><path d="m334.331-106.246h-31.473v140.805c0 16.538 7.897 30.918 31.473 33.199"/><path d="m-40.624-54.788h-31.476v91.966c0 16.542 7.898 30.922 31.476 33.202"/><path d="m-72.099-101.967h31.476v29.954h-31.476z"/><path d="m147.997 68.9c-25.52 0-36.279-17.803-36.279-35.374v-122.143h31.131v33.829h23.576v25.33h-23.576v61.1c0 7.187 3.436 11.128 10.871 11.128h12.705v26.13z"/><path d="m230.751-30.995c-10.643 0-18.883 5.533-22.317 13.007-2.061 4.505-2.747 7.929-3.086 13.467h48.184c-.687-13.524-6.759-26.474-22.781-26.474m-25.403 47.807c0 16.033 10.065 27.836 27.692 27.836 13.851 0 20.719-3.878 28.73-11.8l19.23 18.539c-12.362 12.205-25.296 19.622-48.187 19.622-29.872 0-58.487-16.371-58.487-64.067 0-40.79 24.949-63.836 57.8-63.836 33.306 0 52.419 26.984 52.419 62.413v11.296h-79.198"/><path d="m44.189-29.458c9.155 0 12.933 4.509 12.933 11.867v86.661h31.248v-86.774c0-17.628-9.386-37.084-36.74-37.084h-64.438v123.856h31.131v-98.526"/><text font-family="'ArialMT'" font-size="28.8313" transform="matrix(1.0217 0 0 1 352.1602 -85.6602)">®</text><text font-family="'Tahoma-Bold'" font-size="218.0193" transform="translate(-94.1338 408.9209)">NUC</text></g></svg>